<?xml version="1.0" encoding="utf-8"?>
<!-- Generator: Adobe Illustrator 19.2.0, SVG Export Plug-In . SVG Version: 6.00 Build 0)  -->
<svg version="1.1" id="Layer_1" xmlns="http://www.w3.org/2000/svg" xmlns:xlink="http://www.w3.org/1999/xlink" x="0px" y="0px"
	 viewBox="0 0 32 32" style="enable-background:new 0 0 32 32;" xml:space="preserve">
<style type="text/css">
	.st0{fill:#5C56A5;}
	.st1{fill:#FFFFFF;}
</style>
<g>
	<circle class="st0" cx="16" cy="16" r="16"/>
	<g>
		<path class="st1" d="M12.136011,13.127617c0.334503,0,0.671858,0.025697,1.009961,0.067537v-5.92187H11.30147v5.900437
			C11.57558,13.143705,11.854176,13.127617,12.136011,13.127617z"/>
	</g>
	<path class="st1" d="M13.767074,18.723373c0.859518-0.221054,1.663434-0.599779,2.404435-1.034468
		c-0.635306-0.452465-1.297999-0.811005-1.972793-1.064568c-0.143881,0.062193-0.287734,0.117048-0.431643,0.167805V18.723373z"/>
	<path class="st1" d="M10.680409,18.724197v-1.937239c-0.435435-0.174286-0.666376-0.37075-0.666597-0.501423
		c0-0.035526,0.017334-0.072245,0.042395-0.109074c0.005289-0.007809,0.010633-0.015617,0.016947-0.023453
		c0.030293-0.037189,0.06906-0.074545,0.121451-0.111317c0.000997-0.000721,0.002354-0.001413,0.003378-0.002132
		c0.054828-0.038185,0.121894-0.075568,0.197517-0.111705c0.00612-0.002934,0.011824-0.005898,0.018082-0.008833
		c0.079666-0.03705,0.168581-0.07266,0.266828-0.105612v-0.000084c0.117242-0.039375,0.244841-0.075733,0.383627-0.106442
		c0.853093-0.188933,1.814458-0.14222,2.775823,0.137706c1.93638,0.561954,3.813004,1.939399,5.284153,3.879102
		c0.865334,1.140938,1.44706,2.481775,1.713001,3.886744h1.87521c-0.284658-1.808475-1.010405-3.540667-2.117947-5.00157
		c-1.709843-2.253576-3.925816-3.864232-6.240064-4.535979c-1.258264-0.365434-2.534443-0.423059-3.688978-0.167113
		c-0.271451,0.060033-0.51405,0.131586-0.730756,0.212166c-1.516923,0.564031-1.765141,1.570282-1.765141,2.167597
		c0,0.000111,0,0.000195,0,0.000305C8.169337,16.948257,8.500268,18.139648,10.680409,18.724197z"/>
	<g>
		<path class="st1" d="M13.104261,23.610353v-6.963047c-0.32516-0.063477-0.647595-0.098534-0.962789-0.098534
			c-0.27654,0-0.543113,0.029161-0.798265,0.078653v6.982927H13.104261z"/>
	</g>
	<path class="st1" d="M20.838175,8.999153c-0.064852,0.344888-0.142857,0.687061-0.246584,1.022506
		c-0.575745,1.859899-1.755728,3.520314-3.324072,4.691324c0.533184,0.329436,1.051359,0.704949,1.549265,1.123604
		c1.655376-1.375201,2.902924-3.220092,3.537262-5.269754c0.15864-0.513219,0.277626-1.037181,0.360338-1.567679H20.838175z"/>
</g>
</svg>
