<?xml version="1.0" encoding="utf-8"?>
<!-- Generator: Adobe Illustrator 19.2.1, SVG Export Plug-In . SVG Version: 6.00 Build 0)  -->
<!DOCTYPE svg PUBLIC "-//W3C//DTD SVG 1.1//EN" "http://www.w3.org/Graphics/SVG/1.1/DTD/svg11.dtd">
<svg version="1.1" id="Layer_1" xmlns="http://www.w3.org/2000/svg" xmlns:xlink="http://www.w3.org/1999/xlink" x="0px" y="0px"
	 viewBox="0 0 50 50" enable-background="new 0 0 50 50" xml:space="preserve">
<g>
	<path fill="#FFFFFF" d="M29.2,3.1c-1.9-0.3-3.8-0.4-5.7-0.1c-1.1,0.2-2.1,0.7-3.1,1.2c-3.1-1-6.5-1.6-9.8-1C8.2,3.7,6.1,5,4.9,7.1
		C3.3,9.6,3,12.6,3.3,15.5c0.4,3.2,1.2,6.4,2.1,9.5c0.8,2.7,1.7,5.4,3.2,7.8c0.8,1.3,2,2.7,3.6,3.1c1.3,0.3,2.6-0.1,3.6-0.9
		c0.5,0.5,1.1,0.9,1.7,1.1c1.9,0.7,4,0.7,5.9-0.1c0.1,2.6,0,5.3,1,7.8c0.4,1.2,1,2.3,2.1,3c1.1,0.8,2.6,0.9,3.9,0.7
		c1.2-0.2,2.5-0.6,3.5-1.2c1.1-0.7,2-1.7,2.5-2.9c1.2-2.7,1.3-5.6,1.4-8.5c2.8,0.2,5.7-0.5,7.8-2.4c0.8-0.7,1.5-1.8,1.2-2.9
		c-0.3-1.1-1.4-1.7-2.4-1.6c-1.1,0.1-2.1,0.4-3.2,0.4c2.4-4.2,4.3-8.7,5.1-13.4c0.3-2,0.5-4.1,0-6c-0.3-1.1-1.1-2-1.9-2.8
		c-1.8-1.8-4.2-3-6.7-3.5C34.8,2.1,31.9,2.4,29.2,3.1z"/>
	<path fill="#FFFFFF" d="M29.2,4.4c3-0.9,6.2-1.2,9.2-0.3c2.4,0.7,4.6,2.1,6.1,4.1C45.1,9,45.2,10,45.3,11c0.1,1.8-0.3,3.6-0.7,5.3
		c-1.1,4.6-3.1,8.9-5.6,12.9c1.4,0.6,3,0.3,4.4,0.1c0.6-0.1,1.4-0.3,1.8,0.3c0.4,0.6,0,1.3-0.4,1.7c-2.1,2.1-5.3,2.6-8.1,2.1
		c-0.3,2.5-0.6,5.1-1,7.6c-0.2,1.4-0.7,2.9-1.8,3.8c-1,0.9-2.4,1.3-3.7,1.6c-1.3,0.2-2.8,0.1-3.9-0.9c-1.1-1-1.7-2.5-1.9-3.9
		c-0.3-2.5-0.3-5.1-0.3-7.6c-1.2,1.1-2.8,1.6-4.4,1.5c-1.1-0.1-2.4-0.3-3.2-1.1c-0.5-0.4-0.4-1.2,0.1-1.6c0.9-0.7,2.1-0.6,3.1-1
		c0.8-0.2,1.1-1,1.6-1.5c-0.9-0.1-1.7-0.3-2.5-0.7c-1.2,1.3-2.4,2.7-3.5,4c-0.7,0.8-1.6,1.5-2.7,1.3c-1.2-0.2-2.1-1.1-2.8-2.1
		c-1.3-1.9-2.1-4.1-2.9-6.3c-1.1-3.6-2-7.2-2.5-10.9c-0.3-2.8,0-5.8,1.6-8.2c1.3-1.9,3.5-2.9,5.7-3.2c3-0.3,6,0.3,8.7,1.3
		c2.3-1.6,5.3-1.8,8-1.2C28.7,4.3,29,4.4,29.2,4.4z M31.4,5.1c0.6,0.4,1.2,0.7,1.8,1.1c2.4,1.6,4.2,3.9,5.4,6.6
		c0.3,0.8,0.7,1.6,0.6,2.4c0,1.7-0.6,3.4-0.4,5.1c0.2,1.8,0.5,3.7,0.1,5.5c-0.1,0.6-0.5,1.2-0.7,1.8c0,0.1,0.1,0.3,0.1,0.3
		c0.2-0.3,0.4-0.6,0.6-0.9c1.9-3.2,3.3-6.6,4.3-10.1c0.5-1.9,0.9-3.9,0.9-5.9c0-0.8-0.1-1.7-0.6-2.4c-1.1-1.4-2.6-2.6-4.3-3.2
		C36.6,4.7,33.9,4.6,31.4,5.1z M24.4,5.4c-1.9,0.2-3.7,1.3-4.8,2.8c-1.5,2.1-2.2,4.7-2.4,7.2c1.6-0.7,3.3-1.4,5-1
		c1.1,0.3,2,1.3,2.2,2.4c0.5,2.3,0.8,4.6,0.3,6.9c-0.4,1.8-1.5,3.4-1.9,5.3c0.5,0,1,0.1,1.4,0.3c0.9,0.5,1.4,1.5,1.3,2.5
		c-0.1,2.5-0.1,5,0.1,7.6c0.1,1.1,0.1,2.1,0.4,3.1c0.4,1.2,1.2,2.4,2.5,2.7c1.4,0.2,2.8-0.2,4-0.8c1.2-0.6,1.7-2,2-3.3
		c0.4-2.7,0.7-5.4,1-8.1c0.1-1-0.1-2,0.5-2.9c0.3-0.6,0.9-0.8,1.4-1.1c-0.4-0.6-0.9-1.2-1.3-1.8c-1.3-2.8-3.1-5.4-3.7-8.4
		c-0.2-1.3-0.1-2.8,1-3.7c1.2-1,2.8-0.9,4.3-0.9c-0.9-2.5-2.5-4.7-4.5-6.3C30.8,5.9,27.5,5,24.4,5.4z M11.1,5.6
		C9.4,5.9,7.7,6.9,6.9,8.5c-1.2,2.1-1.3,4.6-1.1,6.9c0.4,3.1,1.1,6.1,2,9c0.8,2.5,1.6,5,3,7.2c0.5,0.8,1.1,1.6,2,1.9
		c0.8,0.2,1.4-0.5,1.9-1c1-1.3,2.2-2.5,3.3-3.8c-1.6-1.4-2.4-3.7-2.1-5.8c0.2-1.6,0.3-3.3,0.2-5c-0.2-2.3,0.2-4.7,0.9-7
		c0.5-1.7,1.4-3.2,2.6-4.5C16.7,5.6,13.9,5.1,11.1,5.6z M34.4,15.9c-0.8,0.6-0.8,1.8-0.6,2.7c0.6,2.9,2.2,5.3,3.5,7.9
		c1-1.9,0.4-4.1,0.2-6.2c-0.2-1.7,0.3-3.3,0.4-4.9C36.7,15.4,35.4,15.2,34.4,15.9z M17.1,17c0,1.4,0.1,2.8,0,4.1
		c-0.1,1.2-0.4,2.4-0.1,3.7c0.4,2.2,2.3,4.1,4.5,4c0.3-1.1,0.7-2.2,1.2-3.2c1.4-2.7,1.1-5.8,0.4-8.6c-0.2-0.8-0.9-1.4-1.7-1.4
		C19.9,15.5,18.4,16.1,17.1,17z M37.3,30.5c-0.4,0.4-0.4,1-0.4,1.5c0.9,0.3,1.9,0.3,2.9,0.2c1.4-0.2,2.9-0.6,4-1.7
		c-1.7,0.2-3.6,0.6-5.2-0.2C38.1,30.1,37.6,30.3,37.3,30.5z M20.9,32.5c-1,0.6-2.1,0.5-3.1,1c2,1.1,4.9,0.7,6.2-1.2
		c0.7-0.7,0-2.1-0.9-2C22.2,30.9,21.8,32,20.9,32.5z"/>
	<path fill="#FFFFFF" d="M34.8,16.3c0.6-0.4,1.4-0.4,2-0.2c0,0.8-1,1.4-1.7,1C34.8,17,34.4,16.6,34.8,16.3z"/>
	<path fill="#FFFFFF" d="M20.7,16.4c0.6-0.2,1.3-0.1,1.8,0.3c0.3,0.3,0,0.8-0.3,0.9c-0.7,0.5-1.8,0-1.9-0.8
		C20.3,16.5,20.5,16.4,20.7,16.4z"/>
	<path fill="#326690" d="M31.4,5.1c2.5-0.6,5.2-0.5,7.7,0.4c1.7,0.6,3.2,1.8,4.3,3.2c0.5,0.7,0.6,1.6,0.6,2.4c0,2-0.4,3.9-0.9,5.9
		c-1,3.5-2.4,6.9-4.3,10.1c-0.2,0.3-0.4,0.6-0.6,0.9c0-0.1-0.1-0.3-0.1-0.3c0.2-0.6,0.6-1.2,0.7-1.8c0.5-1.8,0.1-3.7-0.1-5.5
		c-0.2-1.7,0.4-3.4,0.4-5.1c0.1-0.8-0.3-1.6-0.6-2.4c-1.2-2.6-3-4.9-5.4-6.6C32.6,5.8,32,5.5,31.4,5.1z"/>
	<path fill="#326690" d="M24.4,5.4c3.1-0.4,6.4,0.5,8.9,2.4c2,1.6,3.7,3.8,4.5,6.3c-1.4-0.1-3.1-0.1-4.3,0.9c-1.1,0.9-1.2,2.4-1,3.7
		c0.5,3.1,2.4,5.7,3.7,8.4c0.3,0.7,0.8,1.2,1.3,1.8c-0.5,0.3-1.1,0.5-1.4,1.1c-0.5,0.9-0.3,1.9-0.5,2.9c-0.3,2.7-0.6,5.4-1,8.1
		c-0.2,1.3-0.8,2.7-2,3.3c-1.2,0.6-2.7,1-4,0.8c-1.3-0.2-2.1-1.5-2.5-2.7c-0.3-1-0.3-2.1-0.4-3.1c-0.1-2.5-0.1-5-0.1-7.6
		c0.1-1-0.4-2-1.3-2.5c-0.4-0.2-0.9-0.3-1.4-0.3c0.4-1.8,1.5-3.4,1.9-5.3c0.5-2.3,0.2-4.7-0.3-6.9c-0.2-1.1-1.1-2.1-2.2-2.4
		c-1.7-0.4-3.5,0.2-5,1c0.2-2.6,0.9-5.2,2.4-7.2C20.7,6.6,22.5,5.6,24.4,5.4z"/>
	<path fill="#326690" d="M11.1,5.6c2.8-0.5,5.6,0,8.3,0.8c-1.2,1.3-2.1,2.8-2.6,4.5c-0.7,2.2-1,4.6-0.9,7c0.1,1.7,0.1,3.3-0.2,5
		c-0.3,2.1,0.6,4.3,2.1,5.8c-1.1,1.3-2.2,2.5-3.3,3.8c-0.5,0.6-1.1,1.2-1.9,1c-0.9-0.3-1.5-1.1-2-1.9c-1.4-2.2-2.2-4.7-3-7.2
		c-0.9-2.9-1.6-5.9-2-9C5.6,13,5.7,10.5,6.9,8.5C7.7,6.9,9.4,5.9,11.1,5.6z"/>
	<path fill="#326690" d="M34.4,15.9c1-0.7,2.4-0.6,3.5-0.5c-0.1,1.6-0.5,3.2-0.4,4.9c0.2,2.1,0.7,4.2-0.2,6.2c-1.3-2.6-3-5-3.5-7.9
		C33.6,17.7,33.6,16.5,34.4,15.9z M34.8,16.3c-0.3,0.3,0,0.7,0.3,0.8c0.7,0.4,1.7-0.2,1.7-1C36.2,15.9,35.4,15.9,34.8,16.3z"/>
	<path fill="#326690" d="M17.1,17c1.3-0.8,2.8-1.5,4.3-1.4c0.8,0,1.5,0.6,1.7,1.4c0.7,2.8,0.9,5.9-0.4,8.6c-0.5,1-0.9,2.1-1.2,3.2
		c-2.2,0-4.2-1.9-4.5-4c-0.3-1.2,0.1-2.4,0.1-3.7C17.3,19.7,17.2,18.4,17.1,17z M20.7,16.4c-0.2,0.1-0.4,0.2-0.4,0.4
		c0.1,0.8,1.2,1.3,1.9,0.8c0.3-0.2,0.6-0.6,0.3-0.9C22,16.3,21.3,16.2,20.7,16.4z"/>
	<path fill="#326690" d="M37.3,30.5c0.3-0.2,0.8-0.5,1.2-0.2c1.6,0.9,3.5,0.4,5.2,0.2c-1.1,1-2.5,1.5-4,1.7c-1,0.1-2,0.2-2.9-0.2
		C36.9,31.5,36.9,30.9,37.3,30.5z"/>
	<path fill="#326690" d="M20.9,32.5c0.9-0.5,1.3-1.6,2.2-2.2c0.9-0.1,1.6,1.3,0.9,2c-1.4,1.9-4.2,2.3-6.2,1.2
		C18.7,33.1,19.9,33.1,20.9,32.5z"/>
	<path d="M29.2,3.1c2.7-0.7,5.6-1,8.3-0.5c2.5,0.4,4.9,1.7,6.7,3.5c0.8,0.8,1.6,1.7,1.9,2.8c0.5,2,0.3,4,0,6
		c-0.9,4.7-2.7,9.3-5.1,13.4c1.1,0,2.1-0.3,3.2-0.4c1-0.1,2.2,0.6,2.4,1.6c0.3,1.1-0.4,2.2-1.2,2.9c-2.1,1.9-5,2.5-7.8,2.4
		c-0.2,2.9-0.2,5.8-1.4,8.5c-0.5,1.2-1.4,2.2-2.5,2.9c-1.1,0.7-2.3,1-3.5,1.2c-1.3,0.2-2.8,0.1-3.9-0.7c-1.1-0.7-1.7-1.8-2.1-3
		c-0.9-2.5-0.8-5.2-1-7.8c-1.9,0.8-4,0.8-5.9,0.1c-0.7-0.2-1.3-0.6-1.7-1.1c-1,0.8-2.3,1.2-3.6,0.9c-1.6-0.4-2.7-1.8-3.6-3.1
		c-1.5-2.4-2.4-5.1-3.2-7.8c-0.9-3.1-1.7-6.3-2.1-9.5c-0.2-2.9,0-5.9,1.6-8.4C6.1,5,8.2,3.7,10.6,3.2c3.3-0.7,6.6,0,9.8,0.9
		c1-0.5,2-1,3.1-1.2C25.4,2.6,27.3,2.8,29.2,3.1z M29.2,4.4c-0.2,0.1-0.5-0.1-0.7-0.1c-2.7-0.6-5.6-0.3-8,1.2
		c-2.8-1-5.8-1.6-8.7-1.3C9.6,4.5,7.3,5.5,6.1,7.4c-1.6,2.4-1.8,5.4-1.6,8.2C5,19.2,5.9,22.9,7,26.4c0.8,2.2,1.6,4.4,2.9,6.3
		c0.7,0.9,1.6,1.9,2.8,2.1c1.1,0.1,2-0.5,2.7-1.3c1.1-1.4,2.3-2.7,3.5-4c0.8,0.4,1.6,0.6,2.5,0.7c-0.5,0.6-0.9,1.3-1.6,1.5
		c-1,0.4-2.2,0.3-3.1,1c-0.5,0.4-0.5,1.2-0.1,1.6c0.8,0.8,2.1,1,3.2,1.1c1.6,0.1,3.2-0.4,4.4-1.5c0,2.6,0,5.1,0.3,7.6
		c0.1,1.5,0.8,3,1.9,3.9c1,0.9,2.6,1.1,3.9,0.9c1.3-0.3,2.7-0.7,3.7-1.6c1.1-1,1.6-2.4,1.8-3.8c0.4-2.5,0.7-5.1,1-7.6
		c2.8,0.5,6-0.1,8.1-2.1c0.4-0.4,0.9-1.2,0.4-1.7c-0.4-0.5-1.2-0.4-1.8-0.3c-1.4,0.3-3,0.6-4.4-0.1c2.5-4,4.5-8.3,5.6-12.9
		c0.4-1.7,0.7-3.5,0.7-5.3c-0.1-1-0.2-2.1-0.8-2.9c-1.5-2-3.7-3.4-6.1-4.1C35.4,3.2,32.2,3.5,29.2,4.4z"/>
</g>
</svg>
