<?xml version="1.0" encoding="utf-8"?>
<!-- Generator: Adobe Illustrator 19.0.1, SVG Export Plug-In . SVG Version: 6.00 Build 0)  -->
<svg version="1.1" id="Layer_1" xmlns="http://www.w3.org/2000/svg" xmlns:xlink="http://www.w3.org/1999/xlink" x="0px" y="0px"
	 viewBox="0 0 142.2 142.1" style="enable-background:new 0 0 142.2 142.1;" xml:space="preserve">
<style type="text/css">
	.st0{fill:#0F9D59;}
	.st1{fill:#0A6E3D;}
	.st2{fill:#4284F4;}
</style>
<path class="st0" d="M107.5,142.1l34.6,0l0-0.1L94.9,0.2v136.5C98.1,140,102.5,142.1,107.5,142.1"/>
<path class="st1" d="M71.1,71l19.8,59.3c0,0,0,0,0,0c0.9,2.4,2.3,4.5,4,6.3V0.2L94.8,0L71.1,71z"/>
<path class="st2" d="M47.4,0L47.4,0L47.4,0L0,142l0,0.1h34.6c5,0,9.5-2.1,12.7-5.4c1.7-1.8,3.1-3.9,4-6.3c0,0,0,0,0,0L94.8,0L47.4,0
	L47.4,0L47.4,0z"/>
</svg>
