<?xml version="1.0" encoding="utf-8"?>
<!-- Generator: Adobe Illustrator 17.1.0, SVG Export Plug-In . SVG Version: 6.00 Build 0)  -->
<!DOCTYPE svg PUBLIC "-//W3C//DTD SVG 1.1//EN" "http://www.w3.org/Graphics/SVG/1.1/DTD/svg11.dtd">
<svg version="1.1" id="Layer_1" xmlns="http://www.w3.org/2000/svg" xmlns:xlink="http://www.w3.org/1999/xlink" x="0px" y="0px"
	 viewBox="0 0 31 31" enable-background="new 0 0 31 31" xml:space="preserve">
<g id="Oracle_Siebel">
	<g>
		<rect fill="#ED2224" width="31" height="31"/>
		<path fill="#FFFFFF" d="M11.6,22.8c-3.8,0-6.9-3.1-6.9-6.9c0-3.8,3.1-6.9,6.9-6.9h8c3.8,0,6.9,3.1,6.9,6.9c0,3.8-3.1,6.9-6.9,6.9
			L11.6,22.8z"/>
		<path fill="#ED2224" d="M19.4,20.4c2.5,0,4.4-2,4.4-4.4c0-2.5-2-4.4-4.4-4.4l-7.6,0c-2.5,0-4.4,2-4.4,4.4c0,2.4,2,4.4,4.4,4.4
			H19.4z"/>
	</g>
</g>
<g>
</g>
<g>
</g>
<g>
</g>
<g>
</g>
<g>
</g>
<g>
</g>
</svg>
