<?xml version="1.0" encoding="utf-8"?>
<!-- Generator: Adobe Illustrator 22.0.1, SVG Export Plug-In . SVG Version: 6.00 Build 0)  -->
<svg version="1.1" id="Layer_1" xmlns="http://www.w3.org/2000/svg" xmlns:xlink="http://www.w3.org/1999/xlink" x="0px" y="0px"
	 viewBox="0 0 465.5 465.5" style="enable-background:new 0 0 465.5 465.5;" xml:space="preserve">
<style type="text/css">
	.st0{fill:#F3D2A9;}
	.st1{fill:#78A5D0;}
	.st2{fill:#FFFFFF;}
	.st3{fill:#4D5057;}
	.st4{fill:#4F5057;}
	.st5{fill:#D9BC9C;}
	.st6{fill:#33638F;}
	.st7{fill:#628FC2;}
</style>
<g>
	<g id="XMLID_2900_">
		<g id="XMLID_2903_">
			<path class="st0" d="M231.7,417.9c-1.7-1.7-3.8-3-6-3.7v-52.4h-7.4v49c-6.7-3.7-15.6-2.3-21.7,3.9c-7.2,7.3-1.1,28.8-1,25.2
				c0.1-2.1,3.3-4.8,7.4-7.7c0.2,7.4,2.5,14.3,2.5,12.2C205.7,437.8,238.4,424.5,231.7,417.9z"/>
		</g>
		<g id="XMLID_2901_">
			<path class="st0" d="M235.6,419.1c1.7-1.7,3.8-3,6-3.7V363h7.4v49c6.7-3.7,15.6-2.3,21.7,3.9c7.2,7.3,1.1,28.8,1,25.2
				c-0.1-2.1-3.3-4.8-7.4-7.7c-0.2,7.4-2.5,14.3-2.5,12.2C261.6,438.9,228.9,425.7,235.6,419.1z"/>
		</g>
	</g>
	<g>
		<path class="st1" d="M404.8,203.7c-5.3-10.7-16.6-16.7-27.4-14.9c-2.8,0.5-5.4,1.5-7.8,2.8c-0.3-32-1.3-62.9-2.9-92.6
			c0-11.7-4.8-22.3-12.5-30c-1.4-1.4-2.8-2.6-4.2-3.7c-0.3-0.8-0.6-1.6-0.9-2.4c-4.7-12.6-0.4-23.7-4.9-28.9
			c-6.2,0.1-26.7,3.3-37.1,8.3c-6.5,3.2-11.6,7-15.2,10.4c-11.5-1-23.6-1.8-36.2-2.3c-7.3-1.8-15.4-4.4-23.9-7.9
			c-16.8-7-29.6-15.5-38.5-22.5l31.5,27.5c-5.1-1.5-10.5-3.4-16.1-5.7c-16.8-7-29.6-15.5-38.5-22.5l35.7,31.3
			c-8.8,0.4-17.3,0.9-25.5,1.6c-3.8-3.7-9.3-8.4-16.9-12c-10.4-5-30.9-8.2-37.1-8.3c-4.5,5.3-0.2,16.3-4.9,28.9
			c-0.2,0.6-0.4,1.1-0.6,1.6c-3.1,1.8-5.9,4-8.4,6.5c-12.1,12.1-12.5,27.1-12.5,30c-2.5,28.9-4.1,59.8-4.5,92.5
			c-2.4-1.3-4.9-2.3-7.6-2.7c-10.8-1.8-22.1,4.2-27.4,14.9c-4.2,11.8-10.4,34.6-7.2,63.3c3.3,29.4,15,50.5,21.8,61.1
			c7.4-14.2,15.4-32,21.8-53.2c0-0.1,0.1-0.2,0.1-0.4c0.8,14.9,1.8,29.3,2.9,43.2c0,11.7,4.8,22.3,12.5,30
			c12.1,12.1,27.1,12.5,30,12.5c29.1,3,61.4,4.9,96.5,4.6c30.6-0.2,59-2,85-4.6c11.7,0,22.3-4.8,30-12.5
			c12.1-12.1,12.5-27.1,12.5-30c0.7-13.7,1.3-27.8,1.8-42c6.4,20.8,14.3,38.4,21.6,52.4c6.8-10.5,18.5-31.7,21.8-61.1
			C415.2,238.2,408.9,215.5,404.8,203.7z"/>
	</g>
	<g id="XMLID_2898_">
		<path class="st2" d="M224.8,123c10.8,28.8,17.3,88.1-27.2,115.6C158.2,263,106.4,250.9,82,211.4c-27.2-43.8,2.5-93.7,27.2-115.6
			c5.7-5.1,36.8-32.7,71.1-22.3C209.6,82.5,221.2,113.3,224.8,123z"/>
	</g>
	<g id="XMLID_2896_">
		<path class="st2" d="M245,126.4c-10.8,28.8-17.3,88.1,27.2,115.6c39.4,24.4,91.2,12.3,115.6-27.2c27.2-43.8-2.5-93.7-27.2-115.6
			c-5.7-5.1-36.8-32.7-71.1-22.3C260.2,85.9,248.6,116.7,245,126.4z"/>
	</g>
	<g id="XMLID_2894_">
		<path class="st2" d="M233.3,251.5c-47.7,0-90,80.2-79.6,109.5c0.1,0.3,0.2,0.6,0.4,1c24.9,2.1,52,3.4,81,3.2c0.1,0,0.2,0,0.4,0
			c0.2,0,0.4-0.1,0.5-0.1c0.2,0,0.4,0,0.7,0.1c27-0.2,52.4-1.7,75.7-3.9c0.2-0.5,0.4-0.9,0.6-1.4
			C323.3,330.7,281.1,251.5,233.3,251.5z"/>
	</g>
	<g>
		<path id="XMLID_2893_" class="st3" d="M318.6,164.6c-4.4,0-7.9-5.8-7.9-13c0-3.1,0.7-5.9,1.7-8.1c-1.1-0.5-2.3-0.7-3.6-0.7
			c-8,0-14.5,10.6-14.5,23.7c0,13.1,6.5,23.7,14.5,23.7c8,0,14.5-10.6,14.5-23.7c0-1.4-0.1-2.8-0.2-4.1
			C321.8,163.8,320.3,164.6,318.6,164.6z"/>
		<path class="st4" d="M319.1,163.5c-8.4-0.9-7.6-14.6-5.3-19.9c0.2-0.5-0.1-1-0.6-1.2c-8.6-2.7-15.1,3.5-18,11.2
			c-3.7,9.7-3.3,22.6,2.8,31.3c4.1,5.9,11.3,8.5,17.5,4.1c8.3-5.8,9.9-17.9,9.1-27.1c-0.1-1-1.9-0.8-2.4-0.3c-0.9,1.1-2,1.7-3.4,1.9
			c-1.6,0.2-2.2,2.5-0.2,2.2c2.3-0.3,3.8-1,5.6-2.7c-0.8-0.1-1.6-0.2-2.4-0.3c0.7,7.4-0.3,16.1-5.2,22.1c-5.3,6.6-12.5,4.4-16.5-2.2
			c-4-6.5-4.9-15.1-3.6-22.5c1.3-7.2,5.9-18.5,15.2-15.6c-0.2-0.4-0.4-0.8-0.6-1.2c-2.9,6.9-2.9,21.4,7.1,22.4
			C319.6,165.8,321.1,163.7,319.1,163.5z"/>
	</g>
	<g>
		<path id="XMLID_2892_" class="st3" d="M160.3,162.8c-4.4,0-7.9-5.8-7.9-13c0-3.1,0.7-5.9,1.7-8.1c-1.1-0.5-2.3-0.7-3.6-0.7
			c-8,0-14.5,10.6-14.5,23.7c0,13.1,6.5,23.7,14.5,23.7s14.5-10.6,14.5-23.7c0-1.4-0.1-2.8-0.2-4.1
			C163.5,161.9,162,162.8,160.3,162.8z"/>
		<path class="st4" d="M160.8,161.7c-8.4-0.9-7.6-14.6-5.3-19.9c0.2-0.5-0.1-1-0.6-1.2c-8.6-2.7-15.1,3.5-18,11.2
			c-3.7,9.7-3.3,22.6,2.8,31.3c4.1,5.9,11.3,8.5,17.5,4.1c8.3-5.8,9.9-17.9,9.1-27.1c-0.1-1-1.9-0.8-2.4-0.3c-0.9,1.1-2,1.7-3.4,1.9
			c-1.6,0.2-2.2,2.5-0.2,2.2c2.3-0.3,3.8-1,5.6-2.7c-0.8-0.1-1.6-0.2-2.4-0.3c0.7,7.4-0.3,16.1-5.2,22.1c-5.3,6.6-12.5,4.4-16.5-2.2
			c-4-6.5-4.9-15.1-3.6-22.5c1.3-7.2,5.9-18.5,15.2-15.6c-0.2-0.4-0.4-0.8-0.6-1.2c-2.9,6.9-2.9,21.4,7.1,22.4
			C161.3,164,162.7,161.9,160.8,161.7z"/>
	</g>
	<g id="XMLID_2890_">
		<polygon class="st0" points="270.5,239 234.1,287.1 197.6,239 234.1,202.6 		"/>
	</g>
	<polygon id="XMLID_2889_" class="st5" points="270.5,239 234.1,287.1 234.1,202.6 	"/>
	<path id="XMLID_2888_" class="st6" d="M177,36.8c-9.3-4.4-12.1-0.1-3.3,4.1c9.1,5.7,25.6,17.8,38.8,38.9
		c11.4,18.2,19.5,41.9,21.3,48.9c-1.1-10.8-4.5-31.4-18-53C202.6,54.6,186.1,42.6,177,36.8z"/>
	<path id="XMLID_2881_" class="st6" d="M294,31.8c9.3-4.4,12.1-0.1,3.3,4.1c-9.1,5.7-25.6,17.8-38.8,38.9
		c-11.4,18.2-19.5,41.9-21.3,48.9c1.1-10.8,4.5-31.4,18-53C268.4,49.6,284.9,37.6,294,31.8z"/>
	<path class="st7" d="M192.7,303.2c8.5,3.7,17.8,3.8,26.3,0c0.6-0.3-1.9-4.4-3.1-3.9c-8.1,3.6-17.2,3.6-25.3,0
		C189.4,298.8,191.7,302.7,192.7,303.2L192.7,303.2z"/>
	<path class="st7" d="M245.6,303.2c8.4,4.1,17.9,4.1,26.3,0c0.7-0.3-2-4.5-3.1-3.9c-8.1,3.9-17.2,4-25.3,0
		C242.3,298.8,244.6,302.7,245.6,303.2L245.6,303.2z"/>
	<path class="st7" d="M220.7,325.6c8.3,4.5,18,4.5,26.3,0c0.7-0.4-2-4.5-3.1-3.9c-8,4.3-17.3,4.3-25.3,0
		C217.6,321.2,219.7,325.1,220.7,325.6L220.7,325.6z"/>
	<path class="st7" d="M182.9,346.1c8.5,3.6,17.8,3.6,26.3,0c0.6-0.3-1.9-4.4-3.1-3.9c-8.2,3.4-17.1,3.5-25.3,0
		C179.6,341.8,181.8,345.6,182.9,346.1L182.9,346.1z"/>
	<path class="st7" d="M254.5,345.3c8.4,4,17.8,4,26.3,0c0.7-0.3-1.9-4.5-3.1-3.9c-8.1,3.8-17.2,3.8-25.3,0
		C251.3,340.9,253.5,344.8,254.5,345.3L254.5,345.3z"/>
</g>
</svg>
